<?xml version="1.0" encoding="utf-8"?>
<!-- Generator: Adobe Illustrator 24.2.1, SVG Export Plug-In . SVG Version: 6.00 Build 0)  -->
<svg version="1.1" id="Layer_1" xmlns="http://www.w3.org/2000/svg" xmlns:xlink="http://www.w3.org/1999/xlink" x="0px" y="0px"
	 viewBox="0 0 100 100" style="enable-background:new 0 0 100 100;" xml:space="preserve">
<style type="text/css">
	.st0{stroke:#fefefe;stroke-width:0.25;stroke-linecap:round;stroke-linejoin:round;stroke-miterlimit:10;}
</style>
<path fill="#fefefe" d="M21.2,90.6c23.2,8.2,46.3,9.1,69-0.3c2.1-0.9,3.4-2.8,3.4-5V32.1c0-14.4-10.4-26.8-24.3-28.8c-13.7-2.1-26.9,6-31.2,19.3
	l-4.7,14.1l-2.8-4.6c-4-6.5-12.4-8.2-18.7-4.4c-3.4,2.1-5.3,5.6-5.3,9.6c0,5.3,2.1,5.6,16.6,30l-5.4,16.5
	C16.8,86.6,18.2,89.6,21.2,90.6z M89,87.5c-22.1,9.1-44.6,8.2-66.9,0.3c-1.3-0.4-2.1-1.9-1.6-3.1l0.6-1.8
	c23.1,8.2,46.5,9.1,69.4-0.6v2.9C90.4,86.2,89.9,87.2,89,87.5z M25.1,70.6l2.4,3.7c0.4,0.7,1.3,0.9,2.1,0.4c0.7-0.4,0.9-1.3,0.4-2.1
	C8.8,38.5,9.6,40.6,9.6,37.2c0-2.9,1.5-5.4,3.8-7.1c4.9-3.1,11.5-1.6,14.6,3.4c1.5,2.2,7.6,12.4,8.2,13.2c0.4,0.7,1.3,0.9,2.1,0.4
	c0.7-0.4,0.9-1.3,0.4-2.1l-3.4-5.3l5.4-16.5C44.6,11.6,56.3,4.3,68.7,6.2C81,7.9,90.4,19.1,90.4,32.1v47.1
	c-21.2,9.3-44.3,9.6-68.4,0.9L25.1,70.6z"/>
<path fill="#fefefe" d="M67.5,14.9c8.1,1.2,14.1,8.5,14.1,17.1v42.2c0,0.9,0.6,1.5,1.5,1.5s1.5-0.6,1.5-1.5V32.1c0-10-7.2-18.7-16.6-20
	c-0.7-0.1-1.6,0.4-1.6,1.2C66.2,14,66.8,14.9,67.5,14.9z"/>
<g>
	<g>
		<path class="st0" d="M37.9,79.5c-1.2,0-2.4-0.3-3.4-0.8c-1-0.5-1.8-1.3-2.4-2.3c-0.6-1-0.9-2.3-0.9-3.7c0-1.2,0.2-2.3,0.5-3.5
			c0.3-1.1,0.9-2.1,1.5-3.1c0.7-0.9,1.5-1.6,2.6-2.2s2.2-0.8,3.5-0.8c1,0,1.9,0.2,2.7,0.5c0.8,0.3,1.4,0.8,2,1.5
			c0.5,0.7,1,1.5,1.2,2.5l-2,0.7c-0.3-1.2-0.7-2-1.4-2.5S40.2,65,39.1,65c-1,0-1.8,0.2-2.5,0.6c-0.7,0.4-1.4,1-1.8,1.7
			c-0.5,0.7-0.9,1.5-1.1,2.4c-0.3,0.9-0.4,1.8-0.4,2.7c0,1.1,0.2,2,0.6,2.8c0.4,0.8,1,1.4,1.7,1.8c0.7,0.4,1.5,0.6,2.4,0.6
			c1.1,0,1.9-0.2,2.5-0.7c0.6-0.4,1.1-1,1.5-1.8l1.8,0.9c-0.7,1-1.5,1.8-2.4,2.4C40.5,79.2,39.3,79.5,37.9,79.5z"/>
		<path class="st0" d="M50.8,79.5c-1.2,0-2.1-0.2-2.9-0.7c-0.8-0.5-1.4-1.1-1.8-2c-0.4-0.8-0.6-1.7-0.6-2.7c0-1.4,0.3-2.6,0.8-3.6
			c0.5-1.1,1.3-1.9,2.2-2.5c0.9-0.6,2-0.9,3.2-0.9c1.2,0,2.2,0.2,3,0.7c0.8,0.5,1.4,1.1,1.8,1.9c0.4,0.8,0.6,1.7,0.6,2.7
			c0,1.4-0.3,2.6-0.8,3.6c-0.5,1.1-1.2,1.9-2.2,2.5C53.1,79.2,52,79.5,50.8,79.5z M50.9,77.9c0.6,0,1.1-0.1,1.6-0.4s0.9-0.6,1.3-1.1
			c0.4-0.5,0.7-1,0.9-1.7c0.2-0.7,0.3-1.4,0.3-2.2c0-0.7-0.1-1.3-0.4-1.9s-0.6-1-1.2-1.4s-1.2-0.5-2-0.5c-0.6,0-1.1,0.1-1.6,0.4
			c-0.5,0.2-1,0.6-1.3,1.1c-0.4,0.5-0.7,1-0.9,1.7c-0.2,0.7-0.3,1.4-0.3,2.2c0,0.7,0.1,1.3,0.4,1.9s0.6,1,1.2,1.4
			C49.4,77.7,50.1,77.9,50.9,77.9z"/>
		<path class="st0" d="M63.2,79.6c-0.9,0-1.8-0.1-2.5-0.4s-1.4-0.7-1.9-1.2c-0.5-0.5-0.9-1.2-1.2-1.9l1.8-0.8c0.3,0.9,0.8,1.5,1.4,2
			c0.6,0.4,1.5,0.7,2.4,0.7c0.8,0,1.5-0.2,1.9-0.6c0.4-0.4,0.7-0.8,0.7-1.4c0-0.4-0.1-0.7-0.4-1s-0.6-0.4-1.1-0.6l-2.1-0.6
			c-1-0.3-1.7-0.7-2.2-1.2s-0.7-1.2-0.7-1.9c0-0.7,0.2-1.3,0.6-1.8c0.4-0.5,0.9-1,1.6-1.3c0.7-0.3,1.5-0.5,2.4-0.5
			c1.1,0,2.1,0.3,3,0.8c0.9,0.5,1.5,1.3,1.8,2.2l-1.8,0.8c-0.1-0.4-0.4-0.8-0.7-1.2c-0.3-0.3-0.7-0.6-1.1-0.8
			c-0.4-0.2-0.9-0.3-1.5-0.3c-0.9,0-1.5,0.2-2,0.5c-0.4,0.3-0.6,0.7-0.6,1.3c0,0.4,0.2,0.8,0.5,1.1c0.3,0.3,0.7,0.5,1.2,0.6l2.4,0.7
			c0.8,0.2,1.5,0.6,1.9,1.1c0.5,0.5,0.7,1.1,0.7,1.8c0,0.8-0.2,1.5-0.6,2.1c-0.4,0.6-0.9,1-1.6,1.3C64.8,79.4,64,79.6,63.2,79.6z"/>
		<path class="st0" d="M67.9,84.5c-0.6,0-1.1-0.1-1.6-0.2c-0.4-0.1-0.8-0.3-1.1-0.6L66,82c0.5,0.5,1.2,0.7,1.8,0.7
			c0.5,0,1-0.1,1.4-0.4c0.4-0.3,0.8-0.7,1.2-1.3l1.1-1.8l-2.1-11.9h1.9l1.1,6.9l0.5,3l1.7-2.8l4.2-7.1h2.2l-9.1,14.4
			c-0.4,0.7-0.8,1.2-1.3,1.6c-0.4,0.4-0.9,0.7-1.3,0.9C68.8,84.4,68.4,84.5,67.9,84.5z"/>
	</g>
</g>
</svg>
