<?xml version="1.0" standalone="no"?>
<!DOCTYPE svg PUBLIC "-//W3C//DTD SVG 20010904//EN"
 "http://www.w3.org/TR/2001/REC-SVG-20010904/DTD/svg10.dtd">
<svg version="1.0" xmlns="http://www.w3.org/2000/svg"
 width="700.000000pt" height="700.000000pt" viewBox="0 0 700.000000 700.000000"
 preserveAspectRatio="xMidYMid meet">
<metadata>
Created by potrace 1.11, written by Peter Selinger 2001-2013
</metadata>
<g transform="translate(0.000000,700.000000) scale(0.100000,-0.100000)"
fill="#000000" stroke="none">
<path d="M4380 6787 c-3 -3 -34 -7 -70 -11 -70 -7 -87 -9 -195 -32 -191 -40
-458 -153 -640 -270 -49 -32 -92 -61 -95 -64 -3 -3 -36 -31 -75 -62 -216 -174
-397 -399 -520 -647 -30 -60 -55 -112 -55 -115 0 -4 -9 -25 -19 -49 -11 -23
-97 -276 -192 -562 -94 -286 -175 -523 -178 -527 -4 -4 -44 54 -91 130 -46 75
-106 170 -132 210 -137 205 -347 343 -603 396 -105 22 -317 15 -420 -13 -205
-57 -370 -163 -483 -311 -97 -127 -151 -307 -147 -491 3 -126 8 -154 42 -239
44 -109 80 -171 358 -610 215 -339 362 -574 410 -654 159 -264 312 -517 328
-539 13 -19 17 -36 12 -55 -5 -24 -196 -611 -292 -902 -76 -230 -95 -297 -97
-350 -5 -133 62 -255 179 -325 47 -28 266 -104 519 -179 279 -83 649 -170 896
-211 50 -8 149 -23 193 -30 91 -13 110 -15 159 -21 29 -3 85 -9 123 -14 39 -4
77 -8 85 -8 8 0 49 -3 90 -6 41 -4 107 -9 145 -12 81 -6 598 -6 665 0 25 2 90
7 145 11 55 3 107 8 115 10 8 2 50 6 92 10 42 3 87 8 100 10 13 3 46 7 73 10
28 3 57 8 65 10 8 2 35 7 60 10 61 9 229 41 315 60 39 9 79 17 90 19 11 2 58
13 105 25 275 71 531 155 777 252 182 73 242 119 295 227 l33 67 0 2020 c0
1920 -1 2025 -18 2125 -79 447 -268 819 -575 1128 -113 114 -177 167 -312 257
-136 91 -301 172 -456 224 -140 46 -226 66 -404 90 -66 9 -392 15 -400 8z
m360 -211 c653 -75 1202 -502 1455 -1131 46 -115 95 -297 111 -410 3 -22 8
-51 12 -65 3 -14 8 -809 9 -1767 4 -1688 3 -1742 -15 -1752 -110 -59 -608
-236 -807 -287 -252 -65 -451 -109 -535 -120 -19 -2 -42 -6 -50 -9 -8 -2 -37
-7 -65 -10 -27 -4 -57 -8 -65 -10 -8 -2 -42 -7 -75 -11 -33 -3 -67 -8 -75 -9
-8 -2 -44 -6 -80 -9 -36 -4 -81 -9 -100 -11 -145 -19 -688 -26 -915 -12 -140
9 -339 29 -415 42 -14 2 -50 7 -80 10 -30 3 -80 10 -110 15 -30 5 -71 12 -90
15 -104 17 -210 38 -330 65 -52 12 -106 23 -120 26 -14 3 -77 19 -140 35 -322
85 -724 215 -717 233 2 6 51 154 108 329 57 174 106 317 109 317 3 -1 37 -51
75 -113 39 -61 87 -129 108 -150 33 -35 41 -39 73 -34 72 12 112 60 100 121
-4 16 -118 208 -254 425 -136 218 -251 404 -257 414 -5 9 -146 234 -311 500
-307 490 -454 728 -484 782 -9 17 -34 61 -54 98 -69 123 -86 188 -81 302 7
182 56 295 180 420 136 137 298 197 508 189 136 -6 305 -65 411 -146 116 -88
145 -130 521 -741 137 -223 258 -411 270 -417 56 -30 129 -8 151 46 25 59 28
51 -152 329 -104 161 -98 140 -64 236 26 75 273 826 275 839 3 14 77 234 96
286 136 367 410 695 755 900 217 130 464 211 734 242 79 9 291 8 380 -2z
m1595 -5444 c1 -53 -4 -116 -11 -139 -23 -83 -41 -97 -207 -161 -298 -117
-756 -254 -952 -285 -16 -3 -48 -10 -70 -16 -22 -6 -56 -13 -75 -15 -19 -3
-91 -14 -160 -25 -146 -24 -184 -29 -265 -36 -33 -3 -76 -8 -95 -10 -238 -27
-912 -28 -1135 -1 -16 2 -61 7 -100 10 -38 4 -81 9 -95 11 -14 2 -47 7 -75 10
-66 8 -114 15 -145 20 -14 3 -42 8 -64 11 -21 3 -48 8 -60 10 -11 2 -37 7 -56
10 -140 23 -563 121 -690 159 -25 7 -115 34 -200 60 -85 25 -164 50 -175 55
-11 5 -58 22 -104 36 -121 39 -169 87 -173 171 -2 49 41 183 59 183 8 0 60
-16 116 -36 230 -80 632 -193 848 -238 41 -9 108 -23 149 -32 106 -22 103 -22
157 -29 26 -4 64 -11 83 -15 19 -5 62 -11 95 -15 32 -4 62 -8 65 -10 3 -1 32
-6 65 -9 33 -4 74 -8 90 -11 27 -3 101 -11 195 -20 291 -28 897 -28 1150 0 19
2 67 6 105 10 57 5 168 20 290 40 11 1 38 5 60 9 32 4 265 51 357 71 252 55
708 201 933 298 44 19 82 33 85 30 2 -2 5 -48 5 -101z"/>
<path d="M4702 6140 c-56 -25 -73 -92 -38 -145 16 -25 24 -27 181 -65 50 -12
132 -42 182 -65 312 -146 539 -419 638 -767 17 -59 20 -76 35 -163 5 -27 9
-746 9 -1597 1 -856 5 -1558 10 -1570 29 -75 143 -88 187 -21 16 25 17 126 16
1552 0 839 -3 1553 -6 1586 -59 625 -517 1150 -1098 1258 -71 13 -80 13 -116
-3z"/>
<path d="M2607 2575 c-136 -37 -258 -135 -327 -262 -39 -70 -85 -183 -75 -183
3 0 1 -10 -4 -23 -24 -63 -32 -211 -16 -303 39 -222 223 -375 453 -376 132 -1
190 18 293 98 57 44 139 133 139 152 0 10 -110 72 -127 72 -5 0 -17 -14 -27
-32 -39 -65 -111 -121 -172 -133 -188 -36 -344 56 -389 230 -57 221 55 509
232 596 41 20 63 23 148 23 85 1 107 -3 143 -22 58 -31 93 -72 118 -140 25
-65 27 -65 118 -32 37 14 56 27 56 38 0 32 -59 141 -101 187 -43 46 -110 92
-146 100 -10 2 -38 8 -63 14 -61 14 -194 12 -253 -4z"/>
<path d="M3499 2297 c-188 -53 -317 -242 -321 -468 -2 -136 37 -236 122 -312
65 -59 141 -88 234 -89 111 -1 166 13 252 68 134 84 210 228 218 411 5 125
-30 226 -105 302 -69 69 -134 94 -254 98 -61 2 -118 -2 -146 -10z m199 -133
c47 -19 88 -58 115 -109 17 -32 21 -58 21 -130 1 -49 -2 -104 -6 -121 -18 -92
-92 -190 -172 -228 -95 -45 -234 -8 -289 76 -39 60 -50 111 -44 198 10 148 68
253 166 303 64 32 149 37 209 11z"/>
<path d="M4365 2297 c-126 -33 -214 -125 -219 -229 -4 -76 9 -114 58 -161 45
-43 99 -68 236 -107 141 -41 183 -89 143 -168 -37 -73 -139 -100 -251 -67 -65
20 -106 54 -143 121 l-30 52 -69 -30 c-67 -30 -68 -31 -57 -57 38 -88 99 -149
197 -195 61 -29 72 -31 180 -31 102 1 121 3 171 27 100 46 157 124 163 224 5
74 -11 119 -57 165 -43 42 -89 62 -242 105 -117 32 -165 69 -165 124 0 46 29
88 70 102 53 19 169 16 207 -5 43 -23 102 -85 109 -114 7 -27 16 -26 101 12
l52 24 -11 33 c-19 53 -105 132 -173 158 -73 28 -197 35 -270 17z"/>
<path d="M4850 2290 c0 -3 4 -31 10 -61 14 -79 17 -99 45 -259 14 -80 30 -167
35 -195 5 -27 12 -63 15 -80 2 -16 12 -73 21 -125 9 -52 18 -98 20 -101 6 -10
-86 -152 -124 -191 -20 -21 -51 -43 -69 -49 -44 -14 -121 -4 -154 20 -16 12
-30 21 -32 21 -6 0 -57 -115 -57 -129 0 -33 122 -69 215 -62 53 3 133 44 183
93 23 22 132 184 244 360 112 177 264 419 339 537 75 119 134 220 132 224 -3
4 -40 7 -84 6 l-79 -2 -177 -299 c-98 -164 -188 -314 -199 -334 -24 -41 -29
-37 -38 26 -3 25 -8 56 -11 70 -3 14 -8 45 -11 70 -3 25 -7 52 -9 60 -3 8 -7
33 -10 55 -3 22 -8 51 -10 65 -3 14 -7 39 -9 55 -29 178 -36 217 -41 226 -7
11 -145 10 -145 -1z"/>
</g>
</svg>
